
        <svg viewBox="0 0 242 25" fill="none" xmlns="http://www.w3.org/2000/svg">
            <path fill-rule="evenodd" clip-rule="evenodd" d="M139.02 12.9136V13.7597H138.092C137.126 13.7597 136.602 14.2143 136.602 15.4013V19.6129C135.194 21.9743 130.66 24.5 123.74 24.5C113.94 24.5 107.696 19.0825 107.696 12.4021C107.696 6.88358 113.574 0.5 123.582 0.5C129.239 0.5 133.369 2.47632 134.518 3.23402C134.518 3.29275 135.142 5.85988 135.497 7.32044L135.499 7.32741L135.501 7.33702L135.501 7.33735L135.502 7.34282L135.507 7.36052C135.643 7.91977 135.737 8.30707 135.737 8.31058C135.737 8.31689 134.872 8.6326 134.872 8.6326L134.869 8.62665L134.865 8.61913C134.72 8.29944 132.03 2.39338 124.075 2.36267C117.022 2.33741 112.217 7.43923 112.217 12.4148C112.217 17.908 116.952 22.429 124.075 22.3974C128.513 22.3848 132.611 20.0801 132.605 18.4132L132.618 15.4013C132.618 14.2143 132.093 13.7597 131.127 13.7597H130.206V12.9136H139.02ZM2.20582 21.223C2.20582 22.4164 1.68807 22.871 0.715689 22.871H0.185303V23.7108H16.0969C22.4426 23.7108 26.0732 21.6524 26.0732 17.3019C26.0732 14.0375 24.0211 12.0738 18.913 11.4487C21.3755 10.7984 23.5665 9.08724 23.5665 6.42899C23.5602 2.57106 19.7149 0.998841 14.6005 0.998841H0.185303V1.84493H0.715689C1.68175 1.84493 2.20582 2.29324 2.20582 3.48661V21.2167V21.223ZM6.22161 2.98779H12.9083C17.9091 2.98779 19.5886 4.07382 19.5886 6.46056C19.5886 8.8473 18.1301 10.7163 12.6683 10.7163H6.19635L6.22161 2.98779ZM14.5373 12.8631C19.5192 12.8631 21.6091 14.9025 21.6091 17.3587C21.6091 19.6445 20.0874 21.1725 14.411 21.1725H6.22161V12.8631H14.5373ZM239.788 3.49292C239.788 2.29955 240.318 1.84493 241.284 1.84493H241.815V0.998841H233.77V1.84493H234.294C235.267 1.84493 235.785 2.29955 235.785 3.49292V21.223C235.785 22.4164 235.267 22.871 234.294 22.871H233.77V23.7108H241.815V22.871H241.284C240.318 22.871 239.794 22.4164 239.794 21.223V3.49292H239.788ZM85.1037 1.84493V0.998841H77.0721V1.83862H77.6025C78.5749 1.83862 79.0927 2.29324 79.0927 3.48661V21.2167C79.0927 22.41 78.5749 22.8647 77.6025 22.8647H77.0721V23.7108L97.2584 23.7234L99.6009 19.0446L98.8117 18.7479C97.953 20.118 96.4628 21.1157 94.5749 21.1977H83.0832V3.49292C83.0832 2.29955 83.6073 1.84493 84.5733 1.84493H85.1037ZM168.255 15.0983H157.275L162.699 4.43375L168.255 15.0983ZM148.77 23.7424H155.753V22.9089H155.223C154.433 22.9089 153.985 22.5237 153.985 21.9302C153.985 21.6903 154.054 21.4251 154.2 21.1346L156.081 17.4345H169.461L171.393 21.1346C171.545 21.4314 171.608 21.7092 171.608 21.9555C171.608 22.5237 171.147 22.9026 170.364 22.9026H169.84V23.7424H178.269V22.9026H177.745C176.912 22.9026 176.526 22.5995 176.053 21.7092C175.999 21.6191 175.945 21.5226 175.888 21.422L175.888 21.4205L175.856 21.3634L175.819 21.2988L164.959 1.02412H161.89L150.992 21.7092C150.512 22.5995 150.133 22.9026 149.3 22.9026H148.77V23.7424ZM64.1475 0.998841V1.84493H63.6234C62.595 1.84493 62.358 2.30944 61.9763 3.05775L61.9763 3.0578C61.9175 3.17316 61.8552 3.29527 61.786 3.42347L51.3867 23.7108H48.0528L37.5335 3.42978C37.4649 3.30264 37.4029 3.18138 37.3443 3.06666L37.3443 3.06654C36.9606 2.31534 36.7203 1.84493 35.6961 1.84493H35.172V0.998841H43.5066V1.84493H42.9826C42.1807 1.84493 41.7324 2.24272 41.7387 2.84888C41.7387 3.07619 41.8081 3.33507 41.947 3.61289L50.4585 20.0107L58.85 3.61289C58.9889 3.3477 59.0646 3.09513 59.0646 2.87414C59.0646 2.24272 58.6416 1.83862 57.8208 1.83862H57.2967V0.998841H64.1412H64.1475ZM196.833 12.219V2.84888H202.736C207.693 2.84888 209.878 4.52212 209.878 7.48345C209.878 10.4448 207.636 12.219 202.869 12.219H196.833ZM211.482 16.1969C210.396 14.5048 209.726 13.7597 206.923 13.5261C211.463 12.7747 214.203 10.7352 214.203 7.25614C214.203 4.18747 212.025 0.998841 204.233 0.998841H190.809V1.85125H191.339C192.312 1.85125 192.836 2.29955 192.836 3.49292V21.2293C192.836 22.4227 192.312 22.8773 191.339 22.8773H190.809V23.7171H199.396V22.8773H198.342C197.363 22.8773 196.839 22.4227 196.833 21.2293V14.5048H202.326C204.7 14.5048 205.881 14.972 206.904 16.6516L209.966 21.6966C210.863 23.1993 212.328 23.7234 214.727 23.7234H218.395V23.0857C216.173 23.0857 214.771 22.1764 213.559 19.9728L211.482 16.1969Z" fill="currentColor"/>
        </svg>
        